<svg xmlns="http://www.w3.org/2000/svg" width="20" height="21" viewBox="0 0 20 21" fill="none">
  <path d="M16.6925 8.44217L10.4425 14.6922C10.3845 14.7503 10.3156 14.7964 10.2397 14.8278C10.1638 14.8593 10.0825 14.8755 10.0003 14.8755C9.91821 14.8755 9.83688 14.8593 9.76101 14.8278C9.68514 14.7964 9.61621 14.7503 9.55816 14.6922L3.30816 8.44217C3.19088 8.32489 3.125 8.16583 3.125 7.99998C3.125 7.83413 3.19088 7.67507 3.30816 7.55779C3.42544 7.44052 3.5845 7.37463 3.75035 7.37463C3.9162 7.37463 4.07526 7.44052 4.19253 7.55779L10.0003 13.3664L15.8082 7.55779C15.8662 7.49972 15.9352 7.45366 16.011 7.42224C16.0869 7.39081 16.1682 7.37463 16.2503 7.37463C16.3325 7.37463 16.4138 7.39081 16.4897 7.42224C16.5655 7.45366 16.6345 7.49972 16.6925 7.55779C16.7506 7.61586 16.7967 7.6848 16.8281 7.76067C16.8595 7.83654 16.8757 7.91786 16.8757 7.99998C16.8757 8.0821 16.8595 8.16342 16.8281 8.23929C16.7967 8.31516 16.7506 8.3841 16.6925 8.44217Z" fill="#8F97A8"/>
</svg>