<svg width="27" height="27" viewBox="0 0 27 27" fill="none" xmlns="http://www.w3.org/2000/svg">
<path d="M27 13.4998C27 20.3155 21.9527 25.9477 15.3948 26.8683C15.1514 26.9024 14.9057 26.93 14.658 26.9512C14.2767 26.9819 13.8912 26.9982 13.5016 27C6.04436 27 0 20.9538 0 13.4998C0 6.04575 6.04436 0 13.5002 0C20.9561 0 27 6.04436 27 13.4998Z" fill="#2E3192"/>
<path d="M8.48513 17.3187C10.5944 17.3187 12.3043 15.6088 12.3043 13.4996C12.3043 11.3903 10.5944 9.68045 8.48513 9.68045C6.37589 9.68045 4.66602 11.3903 4.66602 13.4996C4.66602 15.6088 6.37589 17.3187 8.48513 17.3187Z" stroke="white" stroke-width="0.736837" stroke-miterlimit="10"/>
<path d="M12.303 9.68124V18.3865" stroke="white" stroke-width="0.736837" stroke-miterlimit="10"/>
<path d="M18.8443 17.3187C20.9535 17.3187 22.6634 15.6088 22.6634 13.4996C22.6634 11.3903 20.9535 9.68045 18.8443 9.68045C16.735 9.68045 15.0251 11.3903 15.0251 13.4996C15.0251 15.6088 16.735 17.3187 18.8443 17.3187Z" stroke="white" stroke-width="0.736837" stroke-miterlimit="10"/>
<path d="M15.3938 9.68124V26.8684C15.1504 26.9025 14.9047 26.9301 14.657 26.9513V9.6817L15.3938 9.68124Z" fill="white"/>
</svg>
