<svg viewBox="0 0 141 45" fill="none" xmlns="http://www.w3.org/2000/svg">
<path d="M45 22.4996C45 33.8592 36.5878 43.2462 25.658 44.7805C25.2523 44.8373 24.8429 44.8833 24.43 44.9186C23.7945 44.9698 23.152 44.9969 22.5027 45C10.0739 45 0 34.923 0 22.4996C0 10.0762 10.0739 0 22.5004 0C34.9268 0 45 10.0739 45 22.4996Z" fill="#2E3192"/>
<path d="M14.1409 28.8647C17.6563 28.8647 20.5061 26.0149 20.5061 22.4995C20.5061 18.9841 17.6563 16.1343 14.1409 16.1343C10.6255 16.1343 7.7757 18.9841 7.7757 22.4995C7.7757 26.0149 10.6255 28.8647 14.1409 28.8647Z" stroke="white" stroke-width="1.22806" stroke-miterlimit="10"/>
<path d="M20.5062 16.1353V30.644" stroke="white" stroke-width="1.22806" stroke-miterlimit="10"/>
<path d="M31.4069 28.8647C34.9223 28.8647 37.7721 26.0149 37.7721 22.4995C37.7721 18.9841 34.9223 16.1343 31.4069 16.1343C27.8915 16.1343 25.0417 18.9841 25.0417 22.4995C25.0417 26.0149 27.8915 28.8647 31.4069 28.8647Z" stroke="white" stroke-width="1.22806" stroke-miterlimit="10"/>
<path d="M25.6561 16.1353V44.7805C25.2503 44.8373 24.841 44.8834 24.428 44.9187V16.136L25.6561 16.1353Z" fill="white"/>
<path d="M48.4681 24.1682C48.4681 23.3057 48.6448 22.542 48.9981 21.8769C49.3618 21.2119 49.8502 20.6975 50.4633 20.3338C51.0868 19.9597 51.7726 19.7727 52.5208 19.7727C53.1963 19.7727 53.7834 19.9077 54.2822 20.1779C54.7913 20.4377 55.1966 20.765 55.498 21.1599V19.9129H57.2905V28.5015H55.498V27.2233C55.1966 27.6286 54.7861 27.9663 54.2666 28.2365C53.747 28.5067 53.1547 28.6417 52.4896 28.6417C51.7518 28.6417 51.0764 28.4547 50.4633 28.0806C49.8502 27.6961 49.3618 27.1662 48.9981 26.4907C48.6448 25.8049 48.4681 25.0307 48.4681 24.1682ZM55.498 24.1994C55.498 23.6071 55.3733 23.0927 55.1239 22.6563C54.8849 22.2198 54.5679 21.8873 54.173 21.6587C53.7782 21.4301 53.3521 21.3158 52.8949 21.3158C52.4377 21.3158 52.0116 21.4301 51.6168 21.6587C51.2219 21.8769 50.8997 22.2042 50.6503 22.6407C50.4113 23.0667 50.2918 23.5759 50.2918 24.1682C50.2918 24.7605 50.4113 25.2801 50.6503 25.7269C50.8997 26.1738 51.2219 26.5167 51.6168 26.7557C52.022 26.9843 52.4481 27.0986 52.8949 27.0986C53.3521 27.0986 53.7782 26.9843 54.173 26.7557C54.5679 26.5271 54.8849 26.1946 55.1239 25.7581C55.3733 25.3113 55.498 24.7917 55.498 24.1994ZM61.4014 16.967V28.5015H59.6244V16.967H61.4014ZM65.5113 16.967V28.5015H63.7343V16.967H65.5113ZM68.7483 18.7751C68.4261 18.7751 68.156 18.666 67.9377 18.4477C67.7195 18.2295 67.6104 17.9593 67.6104 17.6372C67.6104 17.3151 67.7195 17.0449 67.9377 16.8267C68.156 16.6085 68.4261 16.4993 68.7483 16.4993C69.06 16.4993 69.325 16.6085 69.5432 16.8267C69.7614 17.0449 69.8705 17.3151 69.8705 17.6372C69.8705 17.9593 69.7614 18.2295 69.5432 18.4477C69.325 18.666 69.06 18.7751 68.7483 18.7751ZM69.6211 19.9129V28.5015H67.8442V19.9129H69.6211ZM71.3618 24.1682C71.3618 23.3057 71.5385 22.542 71.8918 21.8769C72.2555 21.2119 72.7439 20.6975 73.357 20.3338C73.9804 19.9597 74.6663 19.7727 75.4145 19.7727C76.0899 19.7727 76.677 19.9077 77.1758 20.1779C77.685 20.4377 78.0903 20.765 78.3916 21.1599V19.9129H80.1841V28.5015H78.3916V27.2233C78.0903 27.6286 77.6798 27.9663 77.1602 28.2365C76.6407 28.5067 76.0483 28.6417 75.3833 28.6417C74.6455 28.6417 73.97 28.4547 73.357 28.0806C72.7439 27.6961 72.2555 27.1662 71.8918 26.4907C71.5385 25.8049 71.3618 25.0307 71.3618 24.1682ZM78.3916 24.1994C78.3916 23.6071 78.2669 23.0927 78.0175 22.6563C77.7785 22.2198 77.4616 21.8873 77.0667 21.6587C76.6718 21.4301 76.2458 21.3158 75.7886 21.3158C75.3313 21.3158 74.9053 21.4301 74.5104 21.6587C74.1155 21.8769 73.7934 22.2042 73.544 22.6407C73.305 23.0667 73.1855 23.5759 73.1855 24.1682C73.1855 24.7605 73.305 25.2801 73.544 25.7269C73.7934 26.1738 74.1155 26.5167 74.5104 26.7557C74.9157 26.9843 75.3417 27.0986 75.7886 27.0986C76.2458 27.0986 76.6718 26.9843 77.0667 26.7557C77.4616 26.5271 77.7785 26.1946 78.0175 25.7581C78.2669 25.3113 78.3916 24.7917 78.3916 24.1994ZM86.8513 19.7727C87.5267 19.7727 88.1294 19.9129 88.6594 20.1935C89.1998 20.4741 89.6206 20.8897 89.922 21.4405C90.2233 21.9912 90.374 22.6563 90.374 23.4356V28.5015H88.6127V23.7006C88.6127 22.9316 88.4204 22.3445 88.0359 21.9393C87.6514 21.5236 87.1267 21.3158 86.4616 21.3158C85.7966 21.3158 85.2666 21.5236 84.8717 21.9393C84.4872 22.3445 84.295 22.9316 84.295 23.7006V28.5015H82.5181V19.9129H84.295V20.8949C84.586 20.5416 84.9549 20.2662 85.4017 20.0688C85.8589 19.8714 86.3421 19.7727 86.8513 19.7727ZM92.0483 24.1994C92.0483 23.3161 92.2249 22.542 92.5782 21.8769C92.9419 21.2015 93.4407 20.6819 94.0746 20.3182C94.7085 19.9545 95.4359 19.7727 96.2568 19.7727C97.296 19.7727 98.1533 20.022 98.8287 20.5208C99.5145 21.0092 99.977 21.7107 100.216 22.6251H98.2987C98.1429 22.1991 97.8935 21.8665 97.5506 21.6275C97.2076 21.3885 96.7764 21.269 96.2568 21.269C95.5294 21.269 94.9475 21.5288 94.5111 22.0484C94.085 22.5576 93.872 23.2746 93.872 24.1994C93.872 25.1242 94.085 25.8465 94.5111 26.366C94.9475 26.8856 95.5294 27.1454 96.2568 27.1454C97.2856 27.1454 97.9662 26.6934 98.2987 25.7893H100.216C99.9666 26.6622 99.4989 27.3584 98.8131 27.878C98.1273 28.3872 97.2752 28.6417 96.2568 28.6417C95.4359 28.6417 94.7085 28.4599 94.0746 28.0962C93.4407 27.7221 92.9419 27.2025 92.5782 26.5375C92.2249 25.862 92.0483 25.0827 92.0483 24.1994ZM109.858 23.9968C109.858 24.3189 109.838 24.6099 109.796 24.8697H103.234C103.286 25.5555 103.54 26.1062 103.998 26.5219C104.455 26.9376 105.016 27.1454 105.681 27.1454C106.637 27.1454 107.312 26.7453 107.707 25.9452H109.625C109.365 26.7349 108.892 27.3844 108.206 27.8936C107.531 28.3924 106.689 28.6417 105.681 28.6417C104.86 28.6417 104.122 28.4599 103.468 28.0962C102.823 27.7221 102.314 27.2025 101.94 26.5375C101.576 25.862 101.394 25.0827 101.394 24.1994C101.394 23.3161 101.571 22.542 101.924 21.8769C102.288 21.2015 102.792 20.6819 103.436 20.3182C104.091 19.9545 104.839 19.7727 105.681 19.7727C106.491 19.7727 107.214 19.9493 107.848 20.3026C108.481 20.6559 108.975 21.1547 109.328 21.799C109.682 22.4329 109.858 23.1655 109.858 23.9968ZM108.003 23.4356C107.993 22.781 107.759 22.2562 107.302 21.8613C106.845 21.4665 106.278 21.269 105.603 21.269C104.99 21.269 104.465 21.4665 104.029 21.8613C103.592 22.2458 103.332 22.7706 103.249 23.4356H108.003ZM113.384 21.1755C113.685 20.7806 114.096 20.4481 114.615 20.1779C115.135 19.9077 115.722 19.7727 116.377 19.7727C117.125 19.7727 117.806 19.9597 118.419 20.3338C119.042 20.6975 119.53 21.2119 119.884 21.8769C120.237 22.542 120.414 23.3057 120.414 24.1682C120.414 25.0307 120.237 25.8049 119.884 26.4907C119.53 27.1662 119.042 27.6961 118.419 28.0806C117.806 28.4547 117.125 28.6417 116.377 28.6417C115.722 28.6417 115.14 28.5119 114.631 28.2521C114.122 27.9819 113.706 27.6494 113.384 27.2545V32.5853H111.607V19.9129H113.384V21.1755ZM118.606 24.1682C118.606 23.5759 118.481 23.0667 118.232 22.6407C117.993 22.2042 117.67 21.8769 117.265 21.6587C116.87 21.4301 116.444 21.3158 115.987 21.3158C115.54 21.3158 115.114 21.4301 114.709 21.6587C114.314 21.8873 113.992 22.2198 113.742 22.6563C113.503 23.0927 113.384 23.6071 113.384 24.1994C113.384 24.7917 113.503 25.3113 113.742 25.7581C113.992 26.1946 114.314 26.5271 114.709 26.7557C115.114 26.9843 115.54 27.0986 115.987 27.0986C116.444 27.0986 116.87 26.9843 117.265 26.7557C117.67 26.5167 117.993 26.1738 118.232 25.7269C118.481 25.2801 118.606 24.7605 118.606 24.1682ZM121.579 24.1682C121.579 23.3057 121.755 22.542 122.109 21.8769C122.472 21.2119 122.961 20.6975 123.574 20.3338C124.197 19.9597 124.883 19.7727 125.631 19.7727C126.307 19.7727 126.894 19.9077 127.393 20.1779C127.902 20.4377 128.307 20.765 128.608 21.1599V19.9129H130.401V28.5015H128.608V27.2233C128.307 27.6286 127.897 27.9663 127.377 28.2365C126.858 28.5067 126.265 28.6417 125.6 28.6417C124.862 28.6417 124.187 28.4547 123.574 28.0806C122.961 27.6961 122.472 27.1662 122.109 26.4907C121.755 25.8049 121.579 25.0307 121.579 24.1682ZM128.608 24.1994C128.608 23.6071 128.484 23.0927 128.234 22.6563C127.995 22.2198 127.678 21.8873 127.284 21.6587C126.889 21.4301 126.463 21.3158 126.005 21.3158C125.548 21.3158 125.122 21.4301 124.727 21.6587C124.332 21.8769 124.01 22.2042 123.761 22.6407C123.522 23.0667 123.402 23.5759 123.402 24.1682C123.402 24.7605 123.522 25.2801 123.761 25.7269C124.01 26.1738 124.332 26.5167 124.727 26.7557C125.133 26.9843 125.559 27.0986 126.005 27.0986C126.463 27.0986 126.889 26.9843 127.284 26.7557C127.678 26.5271 127.995 26.1946 128.234 25.7581C128.484 25.3113 128.608 24.7917 128.608 24.1994ZM140.466 19.9129L135.198 32.5385H133.358L135.104 28.3612L131.722 19.9129H133.701L136.117 26.4595L138.627 19.9129H140.466Z" fill="#2E3192"/>
</svg>
