<svg width="20" height="20" viewBox="0 0 20 20" fill="none" xmlns="http://www.w3.org/2000/svg">
<g clip-path="url(#clip0_3130_4425)">
<path d="M15.0001 8.33333C15.0001 7.00725 14.4733 5.73548 13.5356 4.7978C12.5979 3.86012 11.3262 3.33333 10.0001 3.33333C8.674 3.33333 7.40223 3.86012 6.46455 4.7978C5.52687 5.73548 5.00008 7.00725 5.00008 8.33333V15H15.0001V8.33333ZM16.6667 15.5558L17.0001 16C17.0465 16.0619 17.0748 16.1355 17.0817 16.2126C17.0887 16.2896 17.074 16.3671 17.0394 16.4363C17.0048 16.5055 16.9516 16.5638 16.8858 16.6044C16.82 16.6451 16.7441 16.6667 16.6667 16.6667H3.33341C3.25603 16.6667 3.18018 16.6451 3.11436 16.6044C3.04854 16.5638 2.99534 16.5055 2.96074 16.4363C2.92613 16.3671 2.91148 16.2896 2.91843 16.2126C2.92538 16.1355 2.95365 16.0619 3.00008 16L3.33341 15.5558V8.33333C3.33341 6.56522 4.03579 4.86953 5.28604 3.61929C6.53628 2.36904 8.23197 1.66666 10.0001 1.66666C11.7682 1.66666 13.4639 2.36904 14.7141 3.61929C15.9644 4.86953 16.6667 6.56522 16.6667 8.33333V15.5558ZM7.91675 17.5H12.0834C12.0834 18.0525 11.8639 18.5824 11.4732 18.9731C11.0825 19.3638 10.5526 19.5833 10.0001 19.5833C9.44755 19.5833 8.91764 19.3638 8.52694 18.9731C8.13624 18.5824 7.91675 18.0525 7.91675 17.5Z" fill="#262B40"/>
</g>
<circle cx="14.1666" cy="3.33333" r="3.33333" fill="#EA5851"/>
<defs>
<clipPath id="clip0_3130_4425">
<rect width="20" height="20" fill="white"/>
</clipPath>
</defs>
</svg>
