<svg width="20" height="20" viewBox="0 0 20 20" fill="none" xmlns="http://www.w3.org/2000/svg">
<g clip-path="url(#clip0_1545_1293)">
<path d="M15.0003 8.33329C15.0003 7.00721 14.4735 5.73544 13.5359 4.79776C12.5982 3.86008 11.3264 3.33329 10.0003 3.33329C8.67424 3.33329 7.40247 3.86008 6.46479 4.79776C5.52711 5.73544 5.00033 7.00721 5.00033 8.33329V15H15.0003V8.33329ZM16.667 15.5558L17.0003 16C17.0468 16.0619 17.075 16.1355 17.082 16.2125C17.0889 16.2896 17.0743 16.3671 17.0397 16.4363C17.0051 16.5055 16.9519 16.5637 16.886 16.6044C16.8202 16.6451 16.7444 16.6666 16.667 16.6666H3.33366C3.25628 16.6666 3.18043 16.6451 3.1146 16.6044C3.04878 16.5637 2.99559 16.5055 2.96098 16.4363C2.92638 16.3671 2.91173 16.2896 2.91868 16.2125C2.92563 16.1355 2.9539 16.0619 3.00033 16L3.33366 15.5558V8.33329C3.33366 6.56518 4.03604 4.86949 5.28628 3.61925C6.53652 2.36901 8.23222 1.66663 10.0003 1.66663C11.7684 1.66663 13.4641 2.36901 14.7144 3.61925C15.9646 4.86949 16.667 6.56518 16.667 8.33329V15.5558ZM7.91699 17.5H12.0837C12.0837 18.0525 11.8642 18.5824 11.4735 18.9731C11.0828 19.3638 10.5529 19.5833 10.0003 19.5833C9.44779 19.5833 8.91789 19.3638 8.52719 18.9731C8.13649 18.5824 7.91699 18.0525 7.91699 17.5Z" fill="#262B40"/>
</g>
<circle cx="14.1663" cy="3.33333" r="3.33333" fill="#EA5851"/>
<defs>
<clipPath id="clip0_1545_1293">
<rect width="20" height="20" fill="white"/>
</clipPath>
</defs>
</svg>
