<svg width="width" height="height" viewBox="0 0 19 18" fill="none" xmlns="http://www.w3.org/2000/svg">
<path d="M9.5 1.6875C8.05373 1.6875 6.63993 2.11637 5.4374 2.91988C4.23486 3.72339 3.2976 4.86544 2.74413 6.20163C2.19067 7.53781 2.04586 9.00811 2.32801 10.4266C2.61017 11.8451 3.30661 13.148 4.32928 14.1707C5.35196 15.1934 6.65492 15.8898 8.07341 16.172C9.49189 16.4541 10.9622 16.3093 12.2984 15.7559C13.6346 15.2024 14.7766 14.2651 15.5801 13.0626C16.3836 11.8601 16.8125 10.4463 16.8125 9C16.8105 7.06123 16.0394 5.20246 14.6685 3.83154C13.2975 2.46063 11.4388 1.68955 9.5 1.6875ZM9.5 15.1875C8.27623 15.1875 7.07994 14.8246 6.06241 14.1447C5.04488 13.4648 4.25182 12.4985 3.7835 11.3679C3.31518 10.2372 3.19265 8.99314 3.43139 7.79288C3.67014 6.59262 4.25944 5.49011 5.12478 4.62478C5.99012 3.75944 7.09262 3.17014 8.29288 2.93139C9.49314 2.69264 10.7372 2.81518 11.8679 3.2835C12.9985 3.75181 13.9648 4.54488 14.6447 5.56241C15.3246 6.57994 15.6875 7.77623 15.6875 9C15.6856 10.6405 15.0331 12.2132 13.8732 13.3732C12.7132 14.5331 11.1405 15.1856 9.5 15.1875ZM12.875 9C12.875 9.14918 12.8157 9.29226 12.7103 9.39775C12.6048 9.50324 12.4617 9.5625 12.3125 9.5625H10.0625V11.8125C10.0625 11.9617 10.0032 12.1048 9.89775 12.2102C9.79226 12.3157 9.64919 12.375 9.5 12.375C9.35082 12.375 9.20775 12.3157 9.10226 12.2102C8.99677 12.1048 8.9375 11.9617 8.9375 11.8125V9.5625H6.6875C6.53832 9.5625 6.39525 9.50324 6.28976 9.39775C6.18427 9.29226 6.125 9.14918 6.125 9C6.125 8.85082 6.18427 8.70774 6.28976 8.60225C6.39525 8.49676 6.53832 8.4375 6.6875 8.4375H8.9375V6.1875C8.9375 6.03832 8.99677 5.89524 9.10226 5.78975C9.20775 5.68426 9.35082 5.625 9.5 5.625C9.64919 5.625 9.79226 5.68426 9.89775 5.78975C10.0032 5.89524 10.0625 6.03832 10.0625 6.1875V8.4375H12.3125C12.4617 8.4375 12.6048 8.49676 12.7103 8.60225C12.8157 8.70774 12.875 8.85082 12.875 9Z" fill="fill"/>
</svg>
