<svg width="20" height="20" viewBox="0 0 20 20" fill="none" xmlns="http://www.w3.org/2000/svg">
<path d="M3.33333 2.5L16.6667 2.5C16.8877 2.5 17.0996 2.5878 17.2559 2.74408C17.4122 2.90036 17.5 3.11232 17.5 3.33333L17.5 16.6667C17.5 16.8877 17.4122 17.0996 17.2559 17.2559C17.0996 17.4122 16.8877 17.5 16.6667 17.5L3.33333 17.5C3.11232 17.5 2.90036 17.4122 2.74408 17.2559C2.5878 17.0996 2.5 16.8877 2.5 16.6667L2.5 3.33333C2.5 3.11232 2.5878 2.90036 2.74408 2.74408C2.90036 2.5878 3.11232 2.5 3.33333 2.5ZM4.16667 4.16667L4.16667 15.8333L15.8333 15.8333L15.8333 4.16667L4.16667 4.16667ZM9.16667 9.16667L9.16667 5.83333H10.8333L10.8333 9.16667L14.1667 9.16667V10.8333L10.8333 10.8333L10.8333 14.1667H9.16667L9.16667 10.8333L5.83333 10.8333V9.16667L9.16667 9.16667Z" fill="#D5D6E9"/>
</svg>
