<svg width="width" height="height" viewBox="0 0 18 18" fill="none" xmlns="http://www.w3.org/2000/svg">
<path d="M15.0233 7.14792L9.39828 12.7729C9.34604 12.8252 9.284 12.8667 9.21572 12.895C9.14743 12.9233 9.07423 12.9379 9.00031 12.9379C8.92639 12.9379 8.8532 12.9233 8.78491 12.895C8.71662 12.8667 8.65458 12.8252 8.60234 12.7729L2.97734 7.14792C2.8718 7.04237 2.8125 6.89921 2.8125 6.74995C2.8125 6.60068 2.8718 6.45753 2.97734 6.35198C3.08289 6.24643 3.22605 6.18713 3.37531 6.18713C3.52458 6.18713 3.66773 6.24643 3.77328 6.35198L9.00031 11.5797L14.2273 6.35198C14.2796 6.29972 14.3417 6.25826 14.4099 6.22998C14.4782 6.20169 14.5514 6.18713 14.6253 6.18713C14.6992 6.18713 14.7724 6.20169 14.8407 6.22998C14.909 6.25826 14.971 6.29972 15.0233 6.35198C15.0755 6.40424 15.117 6.46628 15.1453 6.53457C15.1736 6.60285 15.1881 6.67604 15.1881 6.74995C15.1881 6.82386 15.1736 6.89704 15.1453 6.96533C15.117 7.03361 15.0755 7.09565 15.0233 7.14792Z" fill="fill"/>
</svg>
