<svg width="width" height="height" viewBox="0 0 16 16" fill="none" xmlns="http://www.w3.org/2000/svg">
<path d="M12.854 7.35378C12.8076 7.40027 12.7524 7.43714 12.6917 7.46231C12.631 7.48747 12.566 7.50042 12.5003 7.50042C12.4346 7.50042 12.3695 7.48747 12.3088 7.46231C12.2481 7.43714 12.193 7.40027 12.1465 7.35378L8.50028 3.7069V13.5C8.50028 13.6326 8.4476 13.7598 8.35383 13.8536C8.26006 13.9473 8.13289 14 8.00028 14C7.86767 14 7.74049 13.9473 7.64672 13.8536C7.55296 13.7598 7.50028 13.6326 7.50028 13.5V3.7069L3.85403 7.35378C3.76021 7.4476 3.63296 7.50031 3.50028 7.50031C3.3676 7.50031 3.24035 7.4476 3.14653 7.35378C3.05271 7.25996 3 7.13271 3 7.00003C3 6.86735 3.05271 6.7401 3.14653 6.64628L7.64653 2.14628C7.69296 2.09979 7.74811 2.06291 7.80881 2.03775C7.86951 2.01259 7.93457 1.99963 8.00028 1.99963C8.06599 1.99963 8.13105 2.01259 8.19175 2.03775C8.25245 2.06291 8.30759 2.09979 8.35403 2.14628L12.854 6.64628C12.9005 6.69271 12.9374 6.74786 12.9626 6.80856C12.9877 6.86926 13.0007 6.93432 13.0007 7.00003C13.0007 7.06573 12.9877 7.1308 12.9626 7.1915C12.9374 7.2522 12.9005 7.30734 12.854 7.35378Z" fill="fill"/>
</svg>
