<svg width="20" height="20" viewBox="0 0 20 20" fill="none" xmlns="http://www.w3.org/2000/svg">
<g clip-path="url(#clip0_1545_12596)">
<path d="M1.66699 16.6667H18.3337V18.3334H1.66699V16.6667ZM3.33366 10H5.00033V15.8334H3.33366V10ZM7.50033 10H9.16699V15.8334H7.50033V10ZM10.8337 10H12.5003V15.8334H10.8337V10ZM15.0003 10H16.667V15.8334H15.0003V10ZM1.66699 5.83335L10.0003 1.66669L18.3337 5.83335V9.16669H1.66699V5.83335ZM3.33366 6.86335V7.50002H16.667V6.86335L10.0003 3.53002L3.33366 6.86335ZM10.0003 6.66669C9.77931 6.66669 9.56735 6.57889 9.41107 6.42261C9.25479 6.26633 9.16699 6.05437 9.16699 5.83335C9.16699 5.61234 9.25479 5.40038 9.41107 5.2441C9.56735 5.08782 9.77931 5.00002 10.0003 5.00002C10.2213 5.00002 10.4333 5.08782 10.5896 5.2441C10.7459 5.40038 10.8337 5.61234 10.8337 5.83335C10.8337 6.05437 10.7459 6.26633 10.5896 6.42261C10.4333 6.57889 10.2213 6.66669 10.0003 6.66669Z" fill="#262B40" fill-opacity="0.8"/>
</g>
<defs>
<clipPath id="clip0_1545_12596">
<rect width="20" height="20" fill="white"/>
</clipPath>
</defs>
</svg>
