<svg width="36" height="36" viewBox="0 0 36 36" fill="none" xmlns="http://www.w3.org/2000/svg">
<rect x="0.5" y="0.5" width="35" height="35" fill="#F3F3F9"/>
<g clip-path="url(#clip0_646_7870)">
<path d="M18.4904 32.9947H18.471C17.878 32.7724 2.56204 26.7576 4.74146 6.46348C4.74146 6.46348 8.60444 3.5293 18.471 3.5293H18.4886C28.3552 3.5293 32.2181 6.46348 32.2181 6.46348C34.3993 26.7576 19.0833 32.7724 18.4904 32.9947Z" fill="url(#paint0_linear_646_7870)"/>
<path d="M17.9611 32.4654H17.9417C17.3488 32.2431 2.03274 26.2283 4.21216 5.93418C4.21216 5.93418 8.07514 3 17.9417 3H17.9593C27.8259 3 31.6888 5.93418 31.6888 5.93418C33.87 26.2283 18.554 32.2431 17.9611 32.4654Z" fill="url(#paint1_linear_646_7870)"/>
<path d="M17.9595 30.7929C17.9595 30.7929 13.5618 29.1838 9.97771 24.5911L9.96358 24.577C9.10169 23.4692 8.35544 22.2762 7.73651 21.0164C6.02122 17.53 4.97651 12.9355 5.61887 6.96481C5.61887 6.96481 6.983 5.93087 10.1842 5.15808C12.0901 4.69755 14.6489 4.33058 17.9595 4.33058C17.9419 4.31115 17.9595 30.7929 17.9595 30.7929Z" fill="#8D267D"/>
<path d="M28.0709 21.2052V21.2176C27.4818 22.3842 26.7827 23.4919 25.9832 24.5258C22.3867 29.1662 17.9414 30.7929 17.9414 30.7929V24.5929V18.9027V4.33057C26.8144 4.33057 30.2944 6.9648 30.2944 6.9648C30.9386 13.0449 29.8427 17.6976 28.0709 21.2052Z" fill="#94939B"/>
<path d="M17.9415 18.913V24.5978L11.4244 13.2793L9.97736 24.5908L9.96328 24.5767C9.10137 23.4689 8.3551 22.2759 7.73616 21.0161L7.72559 20.9931L10.1768 5.15771L17.9416 18.913H17.9415Z" fill="white"/>
<path d="M28.1609 20.9967C28.1309 21.0691 28.1009 21.1379 28.0709 21.2084V21.2208C27.4816 22.3862 26.7825 23.4928 25.9832 24.5255L25.9109 24.5978L24.4709 13.2793L17.9414 24.5925V18.9024L25.7062 5.15771L28.1609 20.9967Z" fill="white"/>
</g>
<rect x="0.5" y="0.5" width="35" height="35" stroke="#E4E8F2"/>
<defs>
<linearGradient id="paint0_linear_646_7870" x1="31.5299" y1="13.2635" x2="9.71516" y2="20.0887" gradientUnits="userSpaceOnUse">
<stop stop-color="#D3D2D2"/>
<stop offset="1" stop-color="#D3D2D2"/>
</linearGradient>
<linearGradient id="paint1_linear_646_7870" x1="4.00038" y1="17.7362" x2="31.9024" y2="17.7362" gradientUnits="userSpaceOnUse">
<stop stop-color="#939598"/>
<stop offset="1" stop-color="#FDFDFD"/>
</linearGradient>
<clipPath id="clip0_646_7870">
<rect width="28.4615" height="30" fill="white" transform="translate(4 3)"/>
</clipPath>
</defs>
</svg>
