<svg width="width" height="height" viewBox="0 0 20 20" fill="none" xmlns="http://www.w3.org/2000/svg">
<path d="M16.6925 12.9417C16.6345 12.9998 16.5656 13.0459 16.4897 13.0774C16.4138 13.1088 16.3325 13.125 16.2503 13.125C16.1682 13.125 16.0869 13.1088 16.011 13.0774C15.9351 13.0459 15.8662 12.9998 15.8082 12.9417L10.0003 7.13311L4.19253 12.9417C4.07526 13.059 3.9162 13.1249 3.75035 13.1249C3.5845 13.1249 3.42544 13.059 3.30816 12.9417C3.19088 12.8244 3.125 12.6654 3.125 12.4995C3.125 12.3337 3.19088 12.1746 3.30816 12.0573L9.55816 5.80733C9.61621 5.74922 9.68514 5.70312 9.76101 5.67167C9.83688 5.64021 9.91821 5.62402 10.0003 5.62402C10.0825 5.62402 10.1638 5.64021 10.2397 5.67167C10.3156 5.70312 10.3845 5.74922 10.4425 5.80733L16.6925 12.0573C16.7506 12.1154 16.7967 12.1843 16.8282 12.2602C16.8597 12.3361 16.8758 12.4174 16.8758 12.4995C16.8758 12.5816 16.8597 12.663 16.8282 12.7389C16.7967 12.8147 16.7506 12.8837 16.6925 12.9417Z" fill="fill"/>
</svg>
