<svg width="24" height="24" viewBox="0 0 24 24" fill="none" xmlns="http://www.w3.org/2000/svg">
<path d="M20.0312 17.031L17.0312 20.031C16.8905 20.1718 16.6996 20.2508 16.5006 20.2508C16.3016 20.2508 16.1107 20.1718 15.97 20.031C15.8292 19.8903 15.7502 19.6994 15.7502 19.5004C15.7502 19.3014 15.8292 19.1105 15.97 18.9698L17.6903 17.2504H4.50059C4.30168 17.2504 4.11091 17.1714 3.97026 17.0307C3.82961 16.8901 3.75059 16.6993 3.75059 16.5004C3.75059 16.3015 3.82961 16.1107 3.97026 15.9701C4.11091 15.8294 4.30168 15.7504 4.50059 15.7504H17.6903L15.97 14.031C15.8292 13.8903 15.7502 13.6994 15.7502 13.5004C15.7502 13.3014 15.8292 13.1105 15.97 12.9698C16.1107 12.8291 16.3016 12.75 16.5006 12.75C16.6996 12.75 16.8905 12.8291 17.0312 12.9698L20.0312 15.9698C20.1009 16.0394 20.1563 16.1222 20.194 16.2132C20.2318 16.3043 20.2512 16.4019 20.2512 16.5004C20.2512 16.599 20.2318 16.6966 20.194 16.7876C20.1563 16.8787 20.1009 16.9614 20.0312 17.031ZM6.96996 11.031C7.1107 11.1718 7.30157 11.2508 7.50059 11.2508C7.69961 11.2508 7.89048 11.1718 8.03122 11.031C8.17195 10.8903 8.25101 10.6994 8.25101 10.5004C8.25101 10.3014 8.17195 10.1105 8.03122 9.96979L6.3109 8.25042H19.5006C19.6995 8.25042 19.8903 8.1714 20.0309 8.03075C20.1716 7.89009 20.2506 7.69933 20.2506 7.50042C20.2506 7.3015 20.1716 7.11074 20.0309 6.97009C19.8903 6.82943 19.6995 6.75042 19.5006 6.75042H6.3109L8.03122 5.03104C8.17195 4.89031 8.25101 4.69944 8.25101 4.50042C8.25101 4.30139 8.17195 4.11052 8.03121 3.96979C7.89048 3.82906 7.69961 3.75 7.50059 3.75C7.30157 3.75 7.1107 3.82906 6.96996 3.96979L3.96997 6.96979C3.90023 7.03945 3.84491 7.12216 3.80717 7.21321C3.76943 7.30426 3.75 7.40186 3.75 7.50042C3.75 7.59898 3.76943 7.69657 3.80717 7.78762C3.84491 7.87867 3.90023 7.96139 3.96997 8.03104L6.96996 11.031Z" fill="#162031"/>
</svg>
