<svg width="width" height="height" viewBox="0 0 24 24" fill="none" xmlns="http://www.w3.org/2000/svg">
<path d="M21.5306 7.28063L9.53055 19.2806C9.4609 19.3504 9.37818 19.4057 9.28713 19.4434C9.19609 19.4812 9.09849 19.5006 8.99993 19.5006C8.90137 19.5006 8.80377 19.4812 8.71272 19.4434C8.62168 19.4057 8.53896 19.3504 8.4693 19.2806L3.2193 14.0306C3.07857 13.8899 2.99951 13.699 2.99951 13.5C2.99951 13.301 3.07857 13.1101 3.2193 12.9694C3.36003 12.8286 3.55091 12.7496 3.74993 12.7496C3.94895 12.7496 4.13982 12.8286 4.28055 12.9694L8.99993 17.6897L20.4693 6.21938C20.61 6.07865 20.8009 5.99959 20.9999 5.99959C21.199 5.99959 21.3898 6.07865 21.5306 6.21938C21.6713 6.36011 21.7503 6.55098 21.7503 6.75001C21.7503 6.94903 21.6713 7.1399 21.5306 7.28063Z" fill="fill"/>
</svg>
