<svg width="16" height="17" viewBox="0 0 16 17" fill="none" xmlns="http://www.w3.org/2000/svg">
<path d="M5.06292 9.5219C4.98872 9.5955 4.92982 9.68305 4.88963 9.77953C4.84944 9.876 4.82874 9.97947 4.82874 10.084C4.82874 10.1885 4.84944 10.292 4.88963 10.3884C4.92982 10.4849 4.98872 10.5725 5.06292 10.6461L7.43792 13.0211C7.51151 13.0953 7.59907 13.1542 7.69554 13.1944C7.79202 13.2345 7.89549 13.2552 8 13.2552C8.10451 13.2552 8.20798 13.2345 8.30446 13.1944C8.40093 13.1542 8.48849 13.0953 8.56208 13.0211L10.9371 10.6461C11.0862 10.497 11.1699 10.2948 11.1699 10.084C11.1699 9.87316 11.0862 9.67097 10.9371 9.5219C10.788 9.37283 10.5858 9.28908 10.375 9.28908C10.1642 9.28908 9.96199 9.37283 9.81292 9.5219L8.79167 10.5511V1.37565C8.79167 1.16569 8.70826 0.964324 8.55979 0.815858C8.41133 0.667392 8.20996 0.583984 8 0.583984C7.79004 0.583984 7.58867 0.667392 7.44021 0.815858C7.29174 0.964324 7.20833 1.16569 7.20833 1.37565V10.5511L6.18708 9.5219C6.11349 9.4477 6.02593 9.3888 5.92946 9.34861C5.83298 9.30842 5.72951 9.28773 5.625 9.28773C5.52049 9.28773 5.41702 9.30842 5.32054 9.34861C5.22407 9.3888 5.13651 9.4477 5.06292 9.5219ZM12.75 6.12565H11.1667C10.9567 6.12565 10.7553 6.20906 10.6069 6.35752C10.4584 6.50599 10.375 6.70735 10.375 6.91732C10.375 7.12728 10.4584 7.32864 10.6069 7.47711C10.7553 7.62558 10.9567 7.70898 11.1667 7.70898H12.75C12.96 7.70898 13.1613 7.79239 13.3098 7.94086C13.4583 8.08932 13.5417 8.29069 13.5417 8.50065V14.0423C13.5417 14.2523 13.4583 14.4536 13.3098 14.6021C13.1613 14.7506 12.96 14.834 12.75 14.834H3.25C3.04004 14.834 2.83867 14.7506 2.69021 14.6021C2.54174 14.4536 2.45833 14.2523 2.45833 14.0423V8.50065C2.45833 8.29069 2.54174 8.08932 2.69021 7.94086C2.83867 7.79239 3.04004 7.70898 3.25 7.70898H4.83333C5.0433 7.70898 5.24466 7.62558 5.39313 7.47711C5.54159 7.32864 5.625 7.12728 5.625 6.91732C5.625 6.70735 5.54159 6.50599 5.39313 6.35752C5.24466 6.20906 5.0433 6.12565 4.83333 6.12565H3.25C2.62011 6.12565 2.01602 6.37587 1.57062 6.82127C1.12522 7.26667 0.875 7.87076 0.875 8.50065V14.0423C0.875 14.6722 1.12522 15.2763 1.57062 15.7217C2.01602 16.1671 2.62011 16.4173 3.25 16.4173H12.75C13.3799 16.4173 13.984 16.1671 14.4294 15.7217C14.8748 15.2763 15.125 14.6722 15.125 14.0423V8.50065C15.125 7.87076 14.8748 7.26667 14.4294 6.82127C13.984 6.37587 13.3799 6.12565 12.75 6.12565Z" fill="#2E3192"/>
</svg>
