<svg width="16" height="16" viewBox="0 0 16 16" fill="none" xmlns="http://www.w3.org/2000/svg">
<path d="M2.16667 13.8324L3.345 13.8324L11.1067 6.07076L9.92833 4.89243L2.16667 12.6541V13.8324ZM15.5 15.4991L0.5 15.4991L0.5 11.9633L11.6958 0.767426C11.8521 0.6112 12.064 0.523438 12.285 0.523438C12.506 0.523438 12.7179 0.6112 12.8742 0.767426L15.2317 3.12493C15.3879 3.2812 15.4757 3.49312 15.4757 3.71409C15.4757 3.93506 15.3879 4.14699 15.2317 4.30326L5.7025 13.8324L15.5 13.8324V15.4991ZM11.1067 3.71409L12.285 4.89243L13.4633 3.71409L12.285 2.53576L11.1067 3.71409Z" fill="#2E3192"/>
</svg>
