<svg width="18" height="18" viewBox="0 0 18 18" fill="none" xmlns="http://www.w3.org/2000/svg">
<path d="M16.148 4.10247L13.898 1.85247C13.8457 1.80017 13.7837 1.75868 13.7154 1.73038C13.6471 1.70207 13.5739 1.6875 13.5 1.6875C13.4261 1.6875 13.3529 1.70207 13.2846 1.73038C13.2163 1.75868 13.1543 1.80017 13.102 1.85247L6.35203 8.60247C6.29981 8.65475 6.2584 8.7168 6.23017 8.78509C6.20194 8.85337 6.18744 8.92655 6.1875 9.00044V11.2504C6.1875 11.3996 6.24676 11.5427 6.35225 11.6482C6.45774 11.7537 6.60082 11.8129 6.75 11.8129H9C9.07389 11.813 9.14707 11.7985 9.21535 11.7703C9.28364 11.742 9.34569 11.7006 9.39797 11.6484L16.148 4.89841C16.2003 4.84617 16.2418 4.78413 16.2701 4.71585C16.2984 4.64756 16.3129 4.57436 16.3129 4.50044C16.3129 4.42652 16.2984 4.35333 16.2701 4.28504C16.2418 4.21675 16.2003 4.15471 16.148 4.10247ZM8.76727 10.6879H7.3125V9.23318L11.8125 4.73318L13.2673 6.18794L8.76727 10.6879ZM14.0625 5.39271L12.6077 3.93794L13.5 3.04568L14.9548 4.50044L14.0625 5.39271ZM15.75 8.43794V14.6254C15.75 14.9238 15.6315 15.21 15.4205 15.4209C15.2095 15.6319 14.9234 15.7504 14.625 15.7504H3.375C3.07663 15.7504 2.79048 15.6319 2.5795 15.4209C2.36853 15.21 2.25 14.9238 2.25 14.6254V3.37544C2.25 3.07707 2.36853 2.79093 2.5795 2.57995C2.79048 2.36897 3.07663 2.25044 3.375 2.25044H9.5625C9.71168 2.25044 9.85476 2.30971 9.96025 2.41519C10.0657 2.52068 10.125 2.66376 10.125 2.81294C10.125 2.96213 10.0657 3.1052 9.96025 3.21069C9.85476 3.31618 9.71168 3.37544 9.5625 3.37544H3.375V14.6254H14.625V8.43794C14.625 8.28876 14.6843 8.14568 14.7898 8.04019C14.8952 7.93471 15.0383 7.87544 15.1875 7.87544C15.3367 7.87544 15.4798 7.93471 15.5852 8.04019C15.6907 8.14568 15.75 8.28876 15.75 8.43794Z" fill="white"/>
</svg>
