<svg width="20" height="20" viewBox="0 0 20 20" fill="none" xmlns="http://www.w3.org/2000/svg">
<g clip-path="url(#clip0_1545_12560)">
<path d="M5.00033 5.83333V3.33333C5.00033 3.11232 5.08812 2.90036 5.2444 2.74408C5.40068 2.5878 5.61265 2.5 5.83366 2.5H11.1787L12.8453 4.16667H17.5003C17.7213 4.16667 17.9333 4.25446 18.0896 4.41074C18.2459 4.56702 18.3337 4.77899 18.3337 5V13.3333C18.3337 13.5543 18.2459 13.7663 18.0896 13.9226C17.9333 14.0789 17.7213 14.1667 17.5003 14.1667H15.0003V16.6667C15.0003 16.8877 14.9125 17.0996 14.7562 17.2559C14.6 17.4122 14.388 17.5 14.167 17.5H2.50033C2.27931 17.5 2.06735 17.4122 1.91107 17.2559C1.75479 17.0996 1.66699 16.8877 1.66699 16.6667V6.66667C1.66699 6.44565 1.75479 6.23369 1.91107 6.07741C2.06735 5.92113 2.27931 5.83333 2.50033 5.83333H5.00033ZM5.00033 7.5H3.33366V15.8333H13.3337V14.1667H5.00033V7.5ZM6.66699 4.16667V12.5H16.667V5.83333H12.1553L10.4887 4.16667H6.66699Z" fill="#262B40" fill-opacity="0.8"/>
</g>
<defs>
<clipPath id="clip0_1545_12560">
<rect width="20" height="20" fill="white"/>
</clipPath>
</defs>
</svg>
