<svg width="18" height="18" viewBox="0 0 18 18" fill="none" xmlns="http://www.w3.org/2000/svg">
<path d="M15.1875 5.06251H9.23273L7.3125 3.14227C7.20841 3.03735 7.08451 2.95417 6.94799 2.89756C6.81147 2.84094 6.66506 2.81203 6.51727 2.81251H2.8125C2.51413 2.81251 2.22798 2.93103 2.017 3.14201C1.80603 3.35299 1.6875 3.63914 1.6875 3.93751V14.1061C1.68787 14.3928 1.80193 14.6676 2.00465 14.8704C2.20737 15.0731 2.48221 15.1871 2.76891 15.1875H15.2501C15.5317 15.1871 15.8018 15.0751 16.0009 14.8759C16.2001 14.6768 16.3121 14.4067 16.3125 14.1251V6.18751C16.3125 5.88914 16.194 5.60299 15.983 5.39201C15.772 5.18103 15.4859 5.06251 15.1875 5.06251ZM6.51727 3.93751L7.64227 5.06251H2.8125V3.93751H6.51727ZM15.1875 14.0625H2.8125V6.18751H15.1875V14.0625ZM9 7.87501C9.14918 7.87501 9.29226 7.93427 9.39775 8.03976C9.50324 8.14525 9.5625 8.28832 9.5625 8.43751V9.56251H10.6875C10.8367 9.56251 10.9798 9.62177 11.0852 9.72726C11.1907 9.83275 11.25 9.97582 11.25 10.125C11.25 10.2742 11.1907 10.4173 11.0852 10.5228C10.9798 10.6282 10.8367 10.6875 10.6875 10.6875H9.5625V11.8125C9.5625 11.9617 9.50324 12.1048 9.39775 12.2103C9.29226 12.3157 9.14918 12.375 9 12.375C8.85082 12.375 8.70774 12.3157 8.60225 12.2103C8.49676 12.1048 8.4375 11.9617 8.4375 11.8125V10.6875H7.3125C7.16332 10.6875 7.02024 10.6282 6.91475 10.5228C6.80926 10.4173 6.75 10.2742 6.75 10.125C6.75 9.97582 6.80926 9.83275 6.91475 9.72726C7.02024 9.62177 7.16332 9.56251 7.3125 9.56251H8.4375V8.43751C8.4375 8.28832 8.49676 8.14525 8.60225 8.03976C8.70774 7.93427 8.85082 7.87501 9 7.87501Z" fill="white"/>
</svg>
