<svg width="20" height="20" viewBox="0 0 20 20" fill="none" xmlns="http://www.w3.org/2000/svg">
<g clip-path="url(#clip0_1545_12528)">
<path d="M15.833 17.5H4.16634C3.94533 17.5 3.73337 17.4122 3.57709 17.2559C3.4208 17.0996 3.33301 16.8877 3.33301 16.6666V9.16664H0.833008L9.43884 1.34331C9.59227 1.20371 9.79224 1.12634 9.99967 1.12634C10.2071 1.12634 10.4071 1.20371 10.5605 1.34331L19.1663 9.16664H16.6663V16.6666C16.6663 16.8877 16.5785 17.0996 16.4223 17.2559C16.266 17.4122 16.054 17.5 15.833 17.5ZM10.833 15.8333H14.9997V7.63081L9.99967 3.08581L4.99967 7.63081V15.8333H9.16634V10.8333H10.833V15.8333Z" fill="#2E3192"/>
</g>
<defs>
<clipPath id="clip0_1545_12528">
<rect width="20" height="20" fill="white"/>
</clipPath>
</defs>
</svg>
