<svg width="24" height="24" viewBox="0 0 24 24" fill="none" xmlns="http://www.w3.org/2000/svg">
<path d="M20.5153 9.72684L13.0153 2.65059C13.0116 2.64739 13.0082 2.64395 13.005 2.64028C12.7289 2.38916 12.369 2.25 11.9958 2.25C11.6225 2.25 11.2627 2.38916 10.9866 2.64028L10.9763 2.65059L3.48469 9.72684C3.33187 9.86736 3.20989 10.0381 3.12646 10.2282C3.04303 10.4183 2.99997 10.6236 3 10.8312V19.4984C3 19.8962 3.15804 20.2778 3.43934 20.5591C3.72064 20.8404 4.10218 20.9984 4.5 20.9984H9C9.39782 20.9984 9.77936 20.8404 10.0607 20.5591C10.342 20.2778 10.5 19.8962 10.5 19.4984V14.9984H13.5V19.4984C13.5 19.8962 13.658 20.2778 13.9393 20.5591C14.2206 20.8404 14.6022 20.9984 15 20.9984H19.5C19.8978 20.9984 20.2794 20.8404 20.5607 20.5591C20.842 20.2778 21 19.8962 21 19.4984V10.8312C21 10.6236 20.957 10.4183 20.8735 10.2282C20.7901 10.0381 20.6681 9.86736 20.5153 9.72684ZM19.5 19.4984H15V14.9984C15 14.6006 14.842 14.2191 14.5607 13.9377C14.2794 13.6564 13.8978 13.4984 13.5 13.4984H10.5C10.1022 13.4984 9.72064 13.6564 9.43934 13.9377C9.15804 14.2191 9 14.6006 9 14.9984V19.4984H4.5V10.8312L4.51031 10.8218L12 3.74841L19.4906 10.82L19.5009 10.8293L19.5 19.4984Z" fill="#162031"/>
</svg>
