<svg width="width" height="height" viewBox="0 0 18 18" fill="none" xmlns="http://www.w3.org/2000/svg">
<path d="M9.67002 13.103C9.77543 13.2084 9.83464 13.3515 9.83464 13.5006C9.83464 13.6497 9.77543 13.7927 9.67002 13.8982L8.97111 14.6013C8.232 15.34 7.22973 15.7547 6.18479 15.7544C5.13985 15.7541 4.13784 15.3387 3.3992 14.5996C2.66055 13.8604 2.24576 12.8582 2.24609 11.8132C2.24642 10.7683 2.66184 9.76629 3.40095 9.02764L5.09689 7.33171C5.80683 6.6212 6.76145 6.20886 7.76541 6.17906C8.76937 6.14926 9.74676 6.50425 10.4976 7.17139C10.553 7.22052 10.5982 7.28007 10.6306 7.34666C10.663 7.41324 10.6819 7.48555 10.6863 7.55946C10.6908 7.63337 10.6806 7.70743 10.6564 7.77741C10.6323 7.8474 10.5945 7.91193 10.5454 7.96733C10.4963 8.02273 10.4367 8.06792 10.3701 8.1003C10.3036 8.13269 10.2312 8.15164 10.1573 8.15608C10.0834 8.16052 10.0094 8.15036 9.93939 8.12618C9.86941 8.102 9.80487 8.06427 9.74947 8.01514C9.21321 7.53892 8.51527 7.28556 7.7984 7.30686C7.08152 7.32816 6.39987 7.62253 5.89283 8.12975L4.19689 9.82358C3.66934 10.3511 3.37296 11.0667 3.37296 11.8127C3.37296 12.5588 3.66934 13.2743 4.19689 13.8019C4.72444 14.3294 5.43996 14.6258 6.18603 14.6258C6.9321 14.6258 7.64762 14.3294 8.17517 13.8019L8.87408 13.103C8.92632 13.0507 8.98836 13.0092 9.05664 12.9809C9.12493 12.9526 9.19813 12.938 9.27205 12.938C9.34597 12.938 9.41917 12.9526 9.48745 12.9809C9.55574 13.0092 9.61777 13.0507 9.67002 13.103ZM14.5975 3.39983C13.8583 2.66227 12.8567 2.24805 11.8124 2.24805C10.7682 2.24805 9.76658 2.66227 9.02736 3.39983L8.32845 4.09944C8.223 4.20499 8.16379 4.34811 8.16386 4.49731C8.16392 4.64651 8.22326 4.78957 8.32881 4.89503C8.43435 5.00048 8.57747 5.05969 8.72667 5.05962C8.87587 5.05956 9.01894 5.00022 9.12439 4.89468L9.8233 4.19577C10.3509 3.66822 11.0664 3.37184 11.8124 3.37184C12.5585 3.37184 13.274 3.66822 13.8016 4.19577C14.3291 4.72332 14.6255 5.43884 14.6255 6.18491C14.6255 6.93098 14.3291 7.6465 13.8016 8.17405L12.1056 9.87139C11.5983 10.3783 10.9165 10.6723 10.1997 10.6932C9.48278 10.7141 8.785 10.4604 8.249 9.98389C8.1936 9.93477 8.12907 9.89704 8.05908 9.87286C7.9891 9.84868 7.91504 9.83852 7.84113 9.84296C7.69186 9.85192 7.55227 9.91982 7.45306 10.0317C7.40394 10.0871 7.36621 10.1516 7.34203 10.2216C7.31785 10.2916 7.30769 10.3657 7.31213 10.4396C7.32109 10.5888 7.38899 10.7284 7.50088 10.8276C8.25153 11.495 9.22883 11.8502 10.2328 11.8207C11.2367 11.7911 12.1915 11.379 12.9016 10.6687L14.5975 8.9728C15.3355 8.23352 15.75 7.23161 15.75 6.18702C15.75 5.14243 15.3355 4.14052 14.5975 3.40124V3.39983Z" fill="fill"/>
</svg>
