<svg width="20" height="20" viewBox="0 0 20 20" fill="none" xmlns="http://www.w3.org/2000/svg">
<g clip-path="url(#clip0_1545_12615)">
<path d="M3.33301 15H4.99967V16.6667H14.9997V3.33335H4.99967V5.00002H3.33301V2.50002C3.33301 2.27901 3.42081 2.06704 3.57709 1.91076C3.73337 1.75448 3.94533 1.66669 4.16634 1.66669H15.833C16.054 1.66669 16.266 1.75448 16.4223 1.91076C16.5785 2.06704 16.6663 2.27901 16.6663 2.50002V17.5C16.6663 17.721 16.5785 17.933 16.4223 18.0893C16.266 18.2456 16.054 18.3334 15.833 18.3334H4.16634C3.94533 18.3334 3.73337 18.2456 3.57709 18.0893C3.42081 17.933 3.33301 17.721 3.33301 17.5V15ZM4.99967 9.16669H10.833V10.8334H4.99967V13.3334L0.833008 10L4.99967 6.66669V9.16669Z" fill="#69696B"/>
</g>
<defs>
<clipPath id="clip0_1545_12615">
<rect width="20" height="20" fill="white"/>
</clipPath>
</defs>
</svg>
