<svg width="5" height="18" viewBox="0 0 5 18" fill="none" xmlns="http://www.w3.org/2000/svg">
<path d="M2.47345 0C1.32279 0 0.381348 0.9 0.381348 2C0.381348 3.1 1.32279 4 2.47345 4C3.62411 4 4.56556 3.1 4.56556 2C4.56556 0.9 3.62411 0 2.47345 0ZM2.47345 14C1.32279 14 0.381348 14.9 0.381348 16C0.381348 17.1 1.32279 18 2.47345 18C3.62411 18 4.56556 17.1 4.56556 16C4.56556 14.9 3.62411 14 2.47345 14ZM2.47345 7C1.32279 7 0.381348 7.9 0.381348 9C0.381348 10.1 1.32279 11 2.47345 11C3.62411 11 4.56556 10.1 4.56556 9C4.56556 7.9 3.62411 7 2.47345 7Z" fill="#4A4E60"/>
</svg>
