<svg width="4" height="12" viewBox="0 0 4 12" fill="none" xmlns="http://www.w3.org/2000/svg">
<path d="M1.99967 0.75C1.35801 0.75 0.833008 1.275 0.833008 1.91667C0.833008 2.55833 1.35801 3.08333 1.99967 3.08333C2.64134 3.08333 3.16634 2.55833 3.16634 1.91667C3.16634 1.275 2.64134 0.75 1.99967 0.75ZM1.99967 8.91667C1.35801 8.91667 0.833008 9.44167 0.833008 10.0833C0.833008 10.725 1.35801 11.25 1.99967 11.25C2.64134 11.25 3.16634 10.725 3.16634 10.0833C3.16634 9.44167 2.64134 8.91667 1.99967 8.91667ZM1.99967 4.83333C1.35801 4.83333 0.833008 5.35833 0.833008 6C0.833008 6.64167 1.35801 7.16667 1.99967 7.16667C2.64134 7.16667 3.16634 6.64167 3.16634 6C3.16634 5.35833 2.64134 4.83333 1.99967 4.83333Z" fill="#2E3192"/>
</svg>
