<svg width="width" height="height" viewBox="0 0 120 120" fill="none" xmlns="http://www.w3.org/2000/svg">
<rect x="0.5" y="0.5" width="119" height="119" rx="59.5" fill="#F3F4F6"/>
<path d="M79.25 40.75H40.75C39.8217 40.75 38.9315 41.1187 38.2751 41.7751C37.6187 42.4315 37.25 43.3217 37.25 44.25V75.75C37.25 76.6783 37.6187 77.5685 38.2751 78.2249C38.9315 78.8812 39.8217 79.25 40.75 79.25H79.25C80.1783 79.25 81.0685 78.8812 81.7249 78.2249C82.3812 77.5685 82.75 76.6783 82.75 75.75V44.25C82.75 43.3217 82.3812 42.4315 81.7249 41.7751C81.0685 41.1187 80.1783 40.75 79.25 40.75ZM79.25 44.25V66.7266L73.5472 61.0259C73.2222 60.7008 72.8363 60.443 72.4116 60.267C71.9869 60.0911 71.5317 60.0005 71.072 60.0005C70.6123 60.0005 70.1571 60.0911 69.7325 60.267C69.3078 60.443 68.9219 60.7008 68.5969 61.0259L64.2219 65.4009L54.5969 55.7759C53.9406 55.1201 53.0507 54.7516 52.1228 54.7516C51.195 54.7516 50.3051 55.1201 49.6488 55.7759L40.75 64.6747V44.25H79.25ZM40.75 69.625L52.125 58.25L69.625 75.75H40.75V69.625ZM79.25 75.75H74.5753L66.7003 67.875L71.0753 63.5L79.25 71.6769V75.75ZM63.5 53.875C63.5 53.3558 63.654 52.8483 63.9424 52.4166C64.2308 51.985 64.6408 51.6485 65.1205 51.4498C65.6001 51.2511 66.1279 51.1992 66.6371 51.3004C67.1463 51.4017 67.614 51.6517 67.9812 52.0188C68.3483 52.386 68.5983 52.8537 68.6996 53.3629C68.8008 53.8721 68.7489 54.3999 68.5502 54.8795C68.3515 55.3592 68.0151 55.7692 67.5834 56.0576C67.1517 56.346 66.6442 56.5 66.125 56.5C65.4288 56.5 64.7611 56.2234 64.2688 55.7312C63.7766 55.2389 63.5 54.5712 63.5 53.875Z" fill="#AFB4C1"/>
<rect x="0.5" y="0.5" width="119" height="119" rx="59.5" stroke="#DADCE2"/>
</svg>
