<svg width="14" height="14" viewBox="0 0 14 14" fill="none" xmlns="http://www.w3.org/2000/svg">
<path d="M6.33301 6.33325V3.66659H7.66634V6.33325H10.333V7.66659H7.66634V10.3333H6.33301V7.66659H3.66634V6.33325H6.33301ZM6.99967 13.6666C3.31767 13.6666 0.333008 10.6819 0.333008 6.99992C0.333008 3.31792 3.31767 0.333252 6.99967 0.333252C10.6817 0.333252 13.6663 3.31792 13.6663 6.99992C13.6663 10.6819 10.6817 13.6666 6.99967 13.6666ZM6.99967 12.3333C8.41416 12.3333 9.77072 11.7713 10.7709 10.7712C11.7711 9.77096 12.333 8.41441 12.333 6.99992C12.333 5.58543 11.7711 4.22888 10.7709 3.22868C9.77072 2.22849 8.41416 1.66659 6.99967 1.66659C5.58519 1.66659 4.22863 2.22849 3.22844 3.22868C2.22824 4.22888 1.66634 5.58543 1.66634 6.99992C1.66634 8.41441 2.22824 9.77096 3.22844 10.7712C4.22863 11.7713 5.58519 12.3333 6.99967 12.3333Z" fill="#2E3192"/>
</svg>
