<svg width="width" height="height" viewBox="0 0 18 18" fill="none" xmlns="http://www.w3.org/2000/svg">
<path d="M6.1875 7.3125H2.8125C2.66332 7.3125 2.52024 7.25324 2.41475 7.14775C2.30926 7.04226 2.25 6.89918 2.25 6.75V3.375C2.25 3.22582 2.30926 3.08274 2.41475 2.97725C2.52024 2.87176 2.66332 2.8125 2.8125 2.8125C2.96168 2.8125 3.10476 2.87176 3.21025 2.97725C3.31574 3.08274 3.375 3.22582 3.375 3.375V5.05195C4.46273 3.825 6.37102 2.25 9 2.25C12.0108 2.25 13.822 4.0268 13.898 4.10203C14.0037 4.20739 14.0633 4.35044 14.0635 4.49971C14.0638 4.64898 14.0047 4.79223 13.8994 4.89797C13.794 5.0037 13.651 5.06325 13.5017 5.06352C13.3524 5.06378 13.2092 5.00474 13.1034 4.89937C13.0845 4.88039 11.5256 3.375 9 3.375C6.53906 3.375 4.76508 5.1082 3.89812 6.1875H6.1875C6.33668 6.1875 6.47976 6.24676 6.58525 6.35225C6.69074 6.45774 6.75 6.60082 6.75 6.75C6.75 6.89918 6.69074 7.04226 6.58525 7.14775C6.47976 7.25324 6.33668 7.3125 6.1875 7.3125ZM15.1875 10.6875H11.8125C11.6633 10.6875 11.5202 10.7468 11.4148 10.8523C11.3093 10.9577 11.25 11.1008 11.25 11.25C11.25 11.3992 11.3093 11.5423 11.4148 11.6477C11.5202 11.7532 11.6633 11.8125 11.8125 11.8125H14.1019C13.2349 12.8918 11.4609 14.625 9 14.625C6.47438 14.625 4.91555 13.1196 4.89656 13.1006C4.79083 12.9953 4.64757 12.9362 4.4983 12.9365C4.34904 12.9367 4.20599 12.9963 4.10063 13.102C3.99526 13.2078 3.93622 13.351 3.93648 13.5003C3.93675 13.6496 3.9963 13.7926 4.10203 13.898C4.17797 13.9732 5.98922 15.75 9 15.75C11.629 15.75 13.5373 14.175 14.625 12.948V14.625C14.625 14.7742 14.6843 14.9173 14.7898 15.0227C14.8952 15.1282 15.0383 15.1875 15.1875 15.1875C15.3367 15.1875 15.4798 15.1282 15.5852 15.0227C15.6907 14.9173 15.75 14.7742 15.75 14.625V11.25C15.75 11.1008 15.6907 10.9577 15.5852 10.8523C15.4798 10.7468 15.3367 10.6875 15.1875 10.6875Z" fill="fill"/>
</svg>
