<svg width="24" height="24" viewBox="0 0 24 24" fill="none" xmlns="http://www.w3.org/2000/svg">
<path d="M9.37514 10.9153C9.48918 10.8495 9.58387 10.7548 9.6497 10.6407C9.71553 10.5267 9.75017 10.3973 9.75014 10.2656V3.51562C9.74947 3.39605 9.72022 3.27837 9.66483 3.1724C9.60944 3.06643 9.52951 2.97523 9.43171 2.90643C9.33392 2.83762 9.22109 2.7932 9.10263 2.77686C8.98418 2.76052 8.86353 2.77274 8.75076 2.8125C6.56168 3.58726 4.72075 5.11748 3.5589 7.12807C2.39706 9.13865 1.9905 11.4977 2.41232 13.7812C2.43419 13.8993 2.48409 14.0104 2.55783 14.1052C2.63157 14.2 2.72699 14.2757 2.83607 14.3259C2.93438 14.3719 3.04162 14.3956 3.15014 14.3953C3.28177 14.3954 3.41111 14.3608 3.52514 14.295L9.37514 10.9153ZM8.25014 4.65188V9.8325L3.76139 12.4228C3.75014 12.2812 3.75014 12.1388 3.75014 12C3.75147 10.4797 4.17229 8.98928 4.96626 7.69279C5.76023 6.3963 6.89656 5.34404 8.25014 4.65188ZM20.4695 7.17375C20.4611 7.15687 20.4526 7.13906 20.4423 7.12219C20.432 7.10531 20.4236 7.09125 20.4133 7.07625C19.5536 5.60794 18.3249 4.39001 16.849 3.54338C15.3732 2.69675 13.7016 2.25087 12.0001 2.25C11.8012 2.25 11.6105 2.32902 11.4698 2.46967C11.3292 2.61032 11.2501 2.80109 11.2501 3V11.6091L3.8617 15.9122C3.77596 15.9619 3.70092 16.0281 3.64092 16.107C3.58092 16.1858 3.53715 16.2758 3.51213 16.3717C3.48711 16.4676 3.48134 16.5675 3.49516 16.6656C3.50898 16.7638 3.54211 16.8582 3.59264 16.9434C4.67664 18.7894 6.33802 20.2272 8.32038 21.0351C10.3027 21.8431 12.4959 21.9761 14.5614 21.4138C16.6269 20.8514 18.4499 19.625 19.7491 17.9236C21.0483 16.2223 21.7515 14.1407 21.7501 12C21.7523 10.307 21.3108 8.64297 20.4695 7.17375ZM12.7501 3.78375C13.9396 3.89324 15.0912 4.25959 16.1253 4.85749C17.1594 5.4554 18.0515 6.27063 18.7398 7.24688L12.7501 10.7353V3.78375ZM12.0001 20.25C10.6908 20.2466 9.40095 19.9333 8.23603 19.3356C7.07111 18.7379 6.06428 17.8729 5.29795 16.8113L12.3667 12.6947L12.3873 12.6816L19.4908 8.54437C20.0706 9.80132 20.3248 11.184 20.23 12.5649C20.1352 13.9459 19.6945 15.2808 18.9484 16.4468C18.2023 17.6127 17.1748 18.5722 15.9605 19.2368C14.7463 19.9014 13.3844 20.2499 12.0001 20.25Z" fill="#3C4453"/>
</svg>
