<svg width="14" height="14" viewBox="0 0 14 14" fill="none" xmlns="http://www.w3.org/2000/svg">
<path d="M11.3587 12.0443C10.1489 13.0926 8.60133 13.6686 7.00065 13.6663C3.31865 13.6663 0.333984 10.6817 0.333984 6.99967C0.333984 3.31767 3.31865 0.333008 7.00065 0.333008C10.6827 0.333008 13.6673 3.31767 13.6673 6.99967C13.6673 8.42367 13.2207 9.74367 12.4607 10.8263L10.334 6.99967H12.334C12.3339 5.77048 11.9092 4.57905 11.1318 3.62693C10.3543 2.67482 9.27189 2.02047 8.06754 1.77458C6.86319 1.52869 5.61087 1.70635 4.52244 2.27752C3.434 2.84868 2.57627 3.77828 2.09433 4.90906C1.6124 6.03984 1.53585 7.30238 1.87765 8.4831C2.21944 9.66382 2.95858 10.6902 3.97004 11.3887C4.9815 12.0872 6.20318 12.4149 7.42841 12.3163C8.65365 12.2177 9.80722 11.6989 10.694 10.8477L11.3587 12.0443Z" fill="#2E3192"/>
</svg>
