<svg width="20" height="20" viewBox="0 0 20 20" fill="none" xmlns="http://www.w3.org/2000/svg">
<g clip-path="url(#clip0_1545_12607)">
<path d="M9.99967 0.833313L17.9163 5.41665V14.5833L9.99967 19.1666L2.08301 14.5833V5.41665L9.99967 0.833313ZM9.99967 2.75915L3.74967 6.37748V13.6225L9.99967 17.2408L16.2497 13.6225V6.37748L9.99967 2.75915ZM9.99967 13.3333C9.11562 13.3333 8.26777 12.9821 7.64265 12.357C7.01753 11.7319 6.66634 10.884 6.66634 9.99998C6.66634 9.11592 7.01753 8.26808 7.64265 7.64296C8.26777 7.01784 9.11562 6.66665 9.99967 6.66665C10.8837 6.66665 11.7316 7.01784 12.3567 7.64296C12.9818 8.26808 13.333 9.11592 13.333 9.99998C13.333 10.884 12.9818 11.7319 12.3567 12.357C11.7316 12.9821 10.8837 13.3333 9.99967 13.3333ZM9.99967 11.6666C10.4417 11.6666 10.8656 11.4911 11.1782 11.1785C11.4907 10.8659 11.6663 10.442 11.6663 9.99998C11.6663 9.55795 11.4907 9.13403 11.1782 8.82147C10.8656 8.50891 10.4417 8.33331 9.99967 8.33331C9.55765 8.33331 9.13372 8.50891 8.82116 8.82147C8.5086 9.13403 8.33301 9.55795 8.33301 9.99998C8.33301 10.442 8.5086 10.8659 8.82116 11.1785C9.13372 11.4911 9.55765 11.6666 9.99967 11.6666Z" fill="#262B40" fill-opacity="0.8"/>
</g>
<defs>
<clipPath id="clip0_1545_12607">
<rect width="20" height="20" fill="white"/>
</clipPath>
</defs>
</svg>
