<svg width="24" height="24" viewBox="0 0 24 24" fill="none" xmlns="http://www.w3.org/2000/svg">
<path d="M11.9996 7.4976C11.1095 7.4976 10.2395 7.76152 9.49949 8.25599C8.75947 8.75046 8.18269 9.45326 7.8421 10.2755C7.5015 11.0978 7.41239 12.0026 7.58602 12.8755C7.75965 13.7484 8.18824 14.5502 8.81757 15.1796C9.44691 15.8089 10.2487 16.2375 11.1216 16.4111C11.9946 16.5848 12.8994 16.4957 13.7216 16.1551C14.5439 15.8145 15.2467 15.2377 15.7412 14.4977C16.2356 13.7576 16.4996 12.8876 16.4996 11.9976C16.4983 10.8045 16.0238 9.66064 15.1802 8.81699C14.3365 7.97335 13.1926 7.49884 11.9996 7.4976ZM11.9996 14.9976C11.4062 14.9976 10.8262 14.8217 10.3328 14.492C9.8395 14.1624 9.45498 13.6938 9.22792 13.1457C9.00085 12.5975 8.94144 11.9943 9.0572 11.4123C9.17295 10.8304 9.45868 10.2958 9.87823 9.87628C10.2978 9.45672 10.8323 9.171 11.4143 9.05525C11.9962 8.93949 12.5994 8.9989 13.1476 9.22596C13.6958 9.45303 14.1643 9.83754 14.494 10.3309C14.8236 10.8242 14.9996 11.4043 14.9996 11.9976C14.9996 12.7933 14.6835 13.5563 14.1209 14.1189C13.5583 14.6815 12.7952 14.9976 11.9996 14.9976ZM20.2496 12.2001C20.2533 12.0651 20.2533 11.9301 20.2496 11.7951L21.6483 10.0476C21.7216 9.95585 21.7724 9.84815 21.7965 9.73319C21.8206 9.61823 21.8174 9.49921 21.7871 9.38573C21.5578 8.52379 21.2147 7.69621 20.7671 6.92479C20.7084 6.82384 20.6271 6.73796 20.5294 6.674C20.4318 6.61004 20.3205 6.56975 20.2046 6.55635L17.9808 6.30885C17.8883 6.21135 17.7946 6.1176 17.6996 6.0276L17.4371 3.79823C17.4236 3.68218 17.3831 3.57088 17.319 3.47322C17.2549 3.37556 17.1688 3.29424 17.0677 3.23573C16.296 2.78886 15.4685 2.4462 14.6067 2.21666C14.4932 2.18647 14.3741 2.18339 14.2592 2.20765C14.1442 2.23191 14.0365 2.28285 13.9449 2.35635L12.2021 3.7476C12.0671 3.7476 11.9321 3.7476 11.7971 3.7476L10.0496 2.35166C9.9578 2.27832 9.85011 2.22756 9.73514 2.20346C9.62018 2.17936 9.50116 2.1826 9.38768 2.21291C8.52588 2.44263 7.69836 2.78562 6.92674 3.23291C6.82579 3.29153 6.73992 3.37291 6.67595 3.47056C6.61199 3.56821 6.5717 3.67945 6.5583 3.79541L6.3108 6.02291C6.2133 6.11604 6.11955 6.20979 6.02955 6.30416L3.80018 6.5601C3.68413 6.5736 3.57284 6.61403 3.47518 6.67816C3.37752 6.74229 3.29619 6.82835 3.23768 6.92948C2.79082 7.70119 2.44815 8.5287 2.21862 9.39041C2.18843 9.50397 2.18534 9.62303 2.2096 9.73799C2.23387 9.85296 2.2848 9.96062 2.3583 10.0523L3.74955 11.7951C3.74955 11.9301 3.74955 12.0651 3.74955 12.2001L2.35362 13.9476C2.28027 14.0394 2.22951 14.147 2.20541 14.262C2.18131 14.377 2.18455 14.496 2.21487 14.6095C2.44417 15.4714 2.78718 16.299 3.23487 17.0704C3.29349 17.1714 3.37486 17.2572 3.47251 17.3212C3.57017 17.3852 3.6814 17.4255 3.79737 17.4389L6.02112 17.6864C6.11424 17.7839 6.20799 17.8776 6.30237 17.9676L6.56206 20.197C6.57556 20.313 6.61598 20.4243 6.68011 20.522C6.74424 20.6196 6.8303 20.701 6.93143 20.7595C7.70315 21.2063 8.53066 21.549 9.39237 21.7785C9.50592 21.8087 9.62498 21.8118 9.73995 21.7876C9.85491 21.7633 9.96257 21.7124 10.0542 21.6389L11.7971 20.2476C11.9321 20.2514 12.0671 20.2514 12.2021 20.2476L13.9496 21.6464C14.0413 21.7197 14.149 21.7705 14.264 21.7946C14.3789 21.8187 14.4979 21.8154 14.6114 21.7851C15.4734 21.5558 16.3009 21.2128 17.0724 20.7651C17.1733 20.7065 17.2592 20.6251 17.3232 20.5275C17.3871 20.4298 17.4274 20.3186 17.4408 20.2026L17.6883 17.9789C17.7858 17.8864 17.8796 17.7926 17.9696 17.6976L20.1989 17.4351C20.315 17.4216 20.4263 17.3812 20.5239 17.317C20.6216 17.2529 20.7029 17.1669 20.7614 17.0657C21.2083 16.294 21.551 15.4665 21.7805 14.6048C21.8107 14.4912 21.8138 14.3722 21.7895 14.2572C21.7652 14.1422 21.7143 14.0346 21.6408 13.9429L20.2496 12.2001ZM18.7402 11.5907C18.7561 11.8617 18.7561 12.1335 18.7402 12.4045C18.729 12.59 18.7871 12.7731 18.9033 12.9182L20.2336 14.5804C20.081 15.0655 19.8855 15.5361 19.6496 15.9867L17.5308 16.2267C17.3463 16.2471 17.1759 16.3353 17.0527 16.4742C16.8722 16.6771 16.68 16.8693 16.4771 17.0498C16.3382 17.173 16.25 17.3434 16.2296 17.5279L15.9942 19.6448C15.5438 19.8809 15.0732 20.0763 14.588 20.2289L12.9249 18.8985C12.7918 18.7922 12.6265 18.7343 12.4561 18.7345H12.4111C12.1401 18.7504 11.8684 18.7504 11.5974 18.7345C11.4118 18.7233 11.2287 18.7814 11.0836 18.8976L9.41674 20.2289C8.93162 20.0762 8.46102 19.8807 8.01049 19.6448L7.77049 17.5289C7.75001 17.3443 7.66182 17.174 7.52299 17.0507C7.32003 16.8703 7.12783 16.6781 6.94737 16.4751C6.82412 16.3363 6.65376 16.2481 6.46924 16.2276L4.35237 15.9914C4.1163 15.5409 3.92084 15.0703 3.7683 14.5851L5.09862 12.922C5.21478 12.7769 5.27291 12.5938 5.26174 12.4082C5.24581 12.1372 5.24581 11.8655 5.26174 11.5945C5.27291 11.4089 5.21478 11.2258 5.09862 11.0807L3.7683 9.41479C3.92095 8.92966 4.11641 8.45906 4.35237 8.00854L6.46831 7.76854C6.65282 7.74806 6.82318 7.65987 6.94643 7.52104C7.12689 7.31808 7.31909 7.12587 7.52205 6.94541C7.66144 6.82208 7.74999 6.65133 7.77049 6.46635L8.00581 4.35041C8.45628 4.11434 8.92689 3.91888 9.41206 3.76635L11.0752 5.09666C11.2203 5.21283 11.4034 5.27096 11.5889 5.25979C11.8599 5.24385 12.1317 5.24385 12.4027 5.25979C12.5882 5.27096 12.7713 5.21283 12.9164 5.09666L14.5824 3.76635C15.0675 3.919 15.5381 4.11446 15.9886 4.35041L16.2286 6.46635C16.2491 6.65087 16.3373 6.82123 16.4761 6.94448C16.6791 7.12494 16.8713 7.31714 17.0517 7.5201C17.175 7.65893 17.3454 7.74712 17.5299 7.7676L19.6467 8.00291C19.8828 8.45339 20.0783 8.924 20.2308 9.40916L18.9005 11.0723C18.7832 11.2186 18.725 11.4036 18.7374 11.5907H18.7402Z" fill="#162031"/>
</svg>
