<svg width="12" height="7" viewBox="0 0 12 7" fill="none" xmlns="http://www.w3.org/2000/svg">
<path d="M11.4232 0.463C11.4612 0.553935 11.4809 0.651455 11.4812 0.75V3.63C11.4812 3.82891 11.4022 4.01968 11.2615 4.16033C11.1209 4.30098 10.9301 4.38 10.7312 4.38C10.5323 4.38 10.3415 4.30098 10.2009 4.16033C10.0602 4.01968 9.9812 3.82891 9.9812 3.63V2.56L7.7132 4.828C7.40574 5.12131 6.99713 5.28495 6.5722 5.28495C6.14727 5.28495 5.73866 5.12131 5.4312 4.828L3.9572 3.354C3.93426 3.33549 3.90568 3.3254 3.8762 3.3254C3.84673 3.3254 3.81814 3.33549 3.7952 3.354L1.2612 5.888C1.11903 6.02048 0.930979 6.0926 0.736678 6.08918C0.542377 6.08575 0.356991 6.00703 0.219578 5.86962C0.0821653 5.73221 0.00345351 5.54682 2.52946e-05 5.35252C-0.00340292 5.15822 0.06872 4.97017 0.2012 4.828L2.7312 2.294C2.88108 2.14406 3.05904 2.02511 3.2549 1.94396C3.45076 1.86281 3.66069 1.82104 3.8727 1.82104C4.08471 1.82104 4.29464 1.86281 4.4905 1.94396C4.68636 2.02511 4.86432 2.14406 5.0142 2.294L6.4872 3.767C6.50874 3.78837 6.53786 3.80037 6.5682 3.80037C6.59855 3.80037 6.62766 3.78837 6.6492 3.767L8.9162 1.5H7.8512C7.65229 1.5 7.46152 1.42098 7.32087 1.28033C7.18022 1.13968 7.1012 0.948912 7.1012 0.75C7.1012 0.551088 7.18022 0.360322 7.32087 0.219669C7.46152 0.0790171 7.65229 0 7.8512 0H10.7312C10.8793 0.000574066 11.0239 0.0448043 11.147 0.127157C11.2701 0.20951 11.3662 0.326329 11.4232 0.463Z" fill="#383838"/>
</svg>
