<svg width="13" height="13" viewBox="0 0 13 13" fill="none" xmlns="http://www.w3.org/2000/svg">
<g clip-path="url(#clip0_366_5777)">
<path d="M8 2C8.276 2 8.5 2.224 8.5 2.5V3.5H11C11.276 3.5 11.5 3.724 11.5 4V10.5C11.5 10.776 11.276 11 11 11H2C1.724 11 1.5 10.776 1.5 10.5V4C1.5 3.724 1.724 3.5 2 3.5H4.5V2.5C4.5 2.224 4.724 2 5 2H8ZM8.5 4.5H4.5V10H8.5V4.5ZM2.5 4.5V10H3.5V4.5H2.5ZM7.5 3H5.5V3.5H7.5V3ZM9.5 4.5V10H10.5V4.5H9.5Z" fill="#26297A"/>
</g>
<defs>
<clipPath id="clip0_366_5777">
<rect width="12" height="12" fill="white" transform="translate(0.5 0.5)"/>
</clipPath>
</defs>
</svg>
