<svg width="20" height="20" viewBox="0 0 20 20" fill="none" xmlns="http://www.w3.org/2000/svg">
<path d="M17.5 11.8745V16.2495C17.5 16.581 17.3683 16.899 17.1339 17.1334C16.8995 17.3678 16.5815 17.4995 16.25 17.4995H3.75C3.41848 17.4995 3.10054 17.3678 2.86612 17.1334C2.6317 16.899 2.5 16.581 2.5 16.2495V11.8745C2.5 11.7088 2.56585 11.5498 2.68306 11.4326C2.80027 11.3154 2.95924 11.2495 3.125 11.2495C3.29076 11.2495 3.44973 11.3154 3.56694 11.4326C3.68415 11.5498 3.75 11.7088 3.75 11.8745V16.2495H16.25V11.8745C16.25 11.7088 16.3158 11.5498 16.4331 11.4326C16.5503 11.3154 16.7092 11.2495 16.875 11.2495C17.0408 11.2495 17.1997 11.3154 17.3169 11.4326C17.4342 11.5498 17.5 11.7088 17.5 11.8745ZM7.31719 6.6917L9.375 4.63311V11.8745C9.375 12.0403 9.44085 12.1992 9.55806 12.3165C9.67527 12.4337 9.83424 12.4995 10 12.4995C10.1658 12.4995 10.3247 12.4337 10.4419 12.3165C10.5592 12.1992 10.625 12.0403 10.625 11.8745V4.63311L12.6828 6.6917C12.8001 6.80898 12.9591 6.87486 13.125 6.87486C13.2909 6.87486 13.4499 6.80898 13.5672 6.6917C13.6845 6.57443 13.7503 6.41537 13.7503 6.24952C13.7503 6.08366 13.6845 5.9246 13.5672 5.80733L10.4422 2.68233C10.3841 2.62422 10.3152 2.57812 10.2393 2.54667C10.1635 2.51521 10.0821 2.49902 10 2.49902C9.91787 2.49902 9.83654 2.51521 9.76066 2.54667C9.68479 2.57812 9.61586 2.62422 9.55781 2.68233L6.43281 5.80733C6.31554 5.9246 6.24965 6.08366 6.24965 6.24952C6.24965 6.41537 6.31554 6.57443 6.43281 6.6917C6.55009 6.80898 6.70915 6.87486 6.875 6.87486C7.04085 6.87486 7.19991 6.80898 7.31719 6.6917Z" fill="#162031"/>
</svg>
