<svg width="18" height="18" viewBox="0 0 18 18" fill="none" xmlns="http://www.w3.org/2000/svg">
<path d="M16.2368 14.9082C15.1659 13.0568 13.5157 11.7293 11.5898 11.1C12.5424 10.5329 13.2826 9.66881 13.6965 8.64036C14.1105 7.61191 14.1754 6.47601 13.8814 5.40709C13.5873 4.33816 12.9504 3.39533 12.0686 2.72338C11.1868 2.05142 10.1089 1.6875 9.00022 1.6875C7.89158 1.6875 6.81359 2.05142 5.9318 2.72338C5.05001 3.39533 4.41317 4.33816 4.11909 5.40709C3.825 6.47601 3.88993 7.61191 4.3039 8.64036C4.71787 9.66881 5.45799 10.5329 6.41061 11.1C4.48475 11.7286 2.83452 13.0561 1.76366 14.9082C1.72439 14.9722 1.69834 15.0434 1.68705 15.1177C1.67576 15.192 1.67946 15.2677 1.69793 15.3406C1.7164 15.4134 1.74927 15.4817 1.79459 15.5416C1.83991 15.6015 1.89677 15.6518 1.96182 15.6893C2.02686 15.7269 2.09877 15.7511 2.1733 15.7604C2.24784 15.7697 2.32349 15.764 2.39578 15.7436C2.46808 15.7233 2.53556 15.6886 2.59425 15.6417C2.65294 15.5948 2.70164 15.5367 2.73749 15.4707C4.06217 13.1813 6.40358 11.8144 9.00022 11.8144C11.5969 11.8144 13.9383 13.1813 15.263 15.4707C15.2988 15.5367 15.3475 15.5948 15.4062 15.6417C15.4649 15.6886 15.5324 15.7233 15.6047 15.7436C15.677 15.764 15.7526 15.7697 15.8271 15.7604C15.9017 15.7511 15.9736 15.7269 16.0386 15.6893C16.1037 15.6518 16.1605 15.6015 16.2059 15.5416C16.2512 15.4817 16.284 15.4134 16.3025 15.3406C16.321 15.2677 16.3247 15.192 16.3134 15.1177C16.3021 15.0434 16.2761 14.9722 16.2368 14.9082ZM5.06272 6.75191C5.06272 5.97315 5.29365 5.21187 5.72631 4.56436C6.15897 3.91684 6.77392 3.41216 7.4934 3.11414C8.21289 2.81612 9.00459 2.73814 9.76839 2.89007C10.5322 3.042 11.2338 3.41701 11.7845 3.96768C12.3351 4.51835 12.7101 5.21995 12.8621 5.98375C13.014 6.74755 12.936 7.53925 12.638 8.25873C12.34 8.97821 11.8353 9.59317 11.1878 10.0258C10.5403 10.4585 9.77899 10.6894 9.00022 10.6894C7.95627 10.6883 6.9554 10.2731 6.21722 9.53491C5.47904 8.79673 5.06384 7.79586 5.06272 6.75191Z" fill="white"/>
</svg>
