<svg width="20" height="20" viewBox="0 0 20 20" fill="none" xmlns="http://www.w3.org/2000/svg">
<g clip-path="url(#clip0_1545_12571)">
<path d="M16.667 5.83333V4.16667H3.33366V15.8333H16.667V14.1667H10.0003C9.77931 14.1667 9.56735 14.0789 9.41107 13.9226C9.25479 13.7663 9.16699 13.5543 9.16699 13.3333V6.66667C9.16699 6.44565 9.25479 6.23369 9.41107 6.07741C9.56735 5.92113 9.77931 5.83333 10.0003 5.83333H16.667ZM2.50033 2.5H17.5003C17.7213 2.5 17.9333 2.5878 18.0896 2.74408C18.2459 2.90036 18.3337 3.11232 18.3337 3.33333V16.6667C18.3337 16.8877 18.2459 17.0996 18.0896 17.2559C17.9333 17.4122 17.7213 17.5 17.5003 17.5H2.50033C2.27931 17.5 2.06735 17.4122 1.91107 17.2559C1.75479 17.0996 1.66699 16.8877 1.66699 16.6667V3.33333C1.66699 3.11232 1.75479 2.90036 1.91107 2.74408C2.06735 2.5878 2.27931 2.5 2.50033 2.5ZM10.8337 7.5V12.5H16.667V7.5H10.8337ZM12.5003 9.16667H15.0003V10.8333H12.5003V9.16667Z" fill="#262B40" fill-opacity="0.8"/>
</g>
<defs>
<clipPath id="clip0_1545_12571">
<rect width="20" height="20" fill="white"/>
</clipPath>
</defs>
</svg>
